<svg xmlns="http://www.w3.org/2000/svg" xmlns:xlink="http://www.w3.org/1999/xlink" width="1080" zoomAndPan="magnify" viewBox="0 0 810 809.999993" height="1080" preserveAspectRatio="xMidYMid meet" version="1.0"><path fill="#000000" d="M 724.820312 639.480469 C 694.875 586.246094 645.824219 525.949219 565.972656 491.671875 C 520.300781 523.621094 464.820312 542.433594 405.007812 542.433594 C 345.164062 542.433594 289.679688 523.625 244.007812 491.671875 C 164.15625 525.949219 115.105469 586.25 85.175781 639.480469 C 45.453125 710.089844 76.597656 810 145.296875 810 C 214 810 405.007812 810 405.007812 810 C 405.007812 810 596 810 664.703125 810 C 733.402344 810 764.546875 710.089844 724.820312 639.480469 Z M 724.820312 639.480469 " fill-opacity="1" fill-rule="nonzero"/><path fill="#000000" d="M 405.007812 475.625 C 522.304688 475.625 617.367188 380.53125 617.367188 263.25 L 617.367188 212.375 C 617.367188 95.09375 522.304688 0 405.007812 0 C 287.691406 0 192.617188 95.09375 192.617188 212.375 L 192.617188 263.25 C 192.617188 380.53125 287.695312 475.625 405.007812 475.625 Z M 405.007812 475.625 " fill-opacity="1" fill-rule="nonzero"/></svg>