<svg xmlns="http://www.w3.org/2000/svg" viewBox="14 33 82 102" fill="none">
  <path
    d="M57.929688 5.175781C64.746094 5.175781 70.117188 10.546875 70.117188 17.363281C70.117188 24.179688 64.539062 29.550781 57.929688 29.550781C51.316406 29.550781 45.738281 24.179688 45.738281 17.363281C45.738281 10.546875 51.113281 5.175781 57.929688 5.175781Z"
    transform="translate(0 28)"
    fill="#000000"
  />
  <path
    d="M89.328125 38.433594C86.851562 38.226562 84.578125 39.878906 84.371094 42.152344L83.132812 54.132812C82.71875 54.132812 82.511719 54.753906 82.097656 54.753906H70.738281L62.886719 40.914062C62.265625 39.671875 61.027344 38.640625 59.582031 38.433594L47.597656 36.78125C45.535156 36.574219 43.46875 37.609375 42.640625 39.671875L33.550781 63.015625C32.933594 64.875 33.757812 66.734375 35.410156 67.769531L57.722656 83.054688L59.582031 100.410156C59.789062 102.679688 61.855469 104.332031 64.125 104.332031C66.8125 104.332031 68.878906 102.269531 68.671875 99.789062L66.605469 78.511719C66.605469 77.476562 65.984375 76.445312 64.953125 75.617188L52.765625 61.984375L57.308594 50.828125L62.679688 60.125C63.507812 61.363281 64.953125 62.8125 66.605469 62.8125H82.304688L77.761719 99.996094C77.554688 102.269531 79.207031 104.128906 81.683594 104.332031C81.890625 104.332031 82.097656 104.128906 82.097656 104.128906C84.371094 104.128906 86.230469 102.472656 86.644531 100.203125L93.460938 42.773438C93.667969 40.707031 91.808594 38.640625 89.328125 38.433594Z"
    transform="translate(0 28)"
    fill="#000000"
  />
  <path
    d="M25.703125 58.265625L33.34375 38.640625C33.757812 37.402344 34.378906 36.160156 35.203125 34.921875L34.171875 34.714844C27.5625 33.890625 21.363281 37.8125 19.296875 43.804688L15.167969 54.546875C14.339844 56.820312 15.578125 59.503906 18.058594 60.125L19.917969 60.539062C22.394531 61.570312 24.875 60.332031 25.703125 58.265625Z"
    transform="translate(0 28)"
    fill="#000000"
  />
  <path
    d="M28.59375 73.757812L19.296875 101.441406C18.882812 102.886719 19.917969 104.128906 21.363281 104.128906H26.527344C28.386719 104.128906 30.246094 102.886719 30.867188 101.234375L39.957031 81.195312L29.625 74.792969C29.421875 74.378906 29.007812 73.964844 28.59375 73.757812Z"
    transform="translate(0 28)"
    fill="#000000"
  />
</svg>